<svg xmlns="http://www.w3.org/2000/svg" width="816" height="614pt" viewBox="0 0 612 614" id="products"><defs><clipPath id="a"><path d="M0 0h612v614H0z"></path></clipPath></defs><g clip-path="url(#a)"><path fill="none" stroke="#fff" stroke-miterlimit="10" stroke-width=".1" d="M0 0h612v614H0V0Zm0 0"></path><path fill="#fff" d="M0 0h612v614H0V0Zm0 0"></path><path fill="none" stroke="#000" stroke-miterlimit="10" stroke-width=".1" d="M64.525 18.75c4.456-.753 8.972-1.1 13.486-1.255 151.663.012 303.326.012 454.99 0 16.188.327 33.376 4.573 45.075 16.43 12.11 11.96 16.472 29.51 16.93 46.048-.015 148.023-.002 296.045-.006 444.068-.092 9.163.483 18.407-1.227 27.47-2.102 13.075-8.102 26.06-18.732 34.33-8.708 6.977-19.694 10.51-30.652 11.854-8.425 1.102-16.93.748-25.4.803-147.656.005-295.312-.01-442.968.007-16.394-.345-33.952-4.71-45.492-17.095-11.38-11.626-15.135-28.46-15.519-44.239-.019-151.768-.012-303.538-.003-455.306.304-15.287 3.616-31.262 13.4-43.433 8.755-11.13 22.342-17.504 36.118-19.683Zm0 0"></path><path d="M64.525 18.75c4.456-.753 8.972-1.1 13.486-1.255 151.663.012 303.326.012 454.99 0 16.188.327 33.376 4.573 45.075 16.43 12.11 11.96 16.472 29.51 16.93 46.048-.015 148.023-.002 296.045-.006 444.068-.092 9.163.483 18.407-1.227 27.47-2.102 13.075-8.102 26.06-18.732 34.33-8.708 6.977-19.694 10.51-30.652 11.854-8.425 1.102-16.93.748-25.4.803-147.656.005-295.312-.01-442.968.007-16.394-.345-33.952-4.71-45.492-17.095-11.38-11.626-15.135-28.46-15.519-44.239-.019-151.768-.012-303.538-.003-455.306.304-15.287 3.616-31.262 13.4-43.433 8.755-11.13 22.342-17.504 36.118-19.683Zm0 0"></path><path fill="none" stroke="#fff" stroke-miterlimit="10" stroke-width=".1" d="M299.515 103.685c3.32-1.698 7.81-.026 9.378 3.32 2.899 6.091 5.715 12.225 8.619 18.316 1.583 3.167.393 7.616-2.994 9.037-53.454 24.18-106.93 48.327-160.367 72.53-8.367 3.211-17.896 3.635-26.33.43-12.873-4.621-22.08-17.562-22.329-31.226.017-22.197-.005-44.393.011-66.588 22.915-.006 45.83-.017 68.746.005.002 12.508.005 25.016-.003 37.524-.104 3.278 1.752 6.695 4.843 7.975 2.969 1.107 6.2.26 9.012-.905 37.137-16.806 74.27-33.623 111.414-50.418Zm0 0"></path><path fill="#fff" d="M299.515 103.685c3.32-1.698 7.81-.026 9.378 3.32 2.899 6.091 5.715 12.225 8.619 18.316 1.583 3.167.393 7.616-2.994 9.037-53.454 24.18-106.93 48.327-160.367 72.53-8.367 3.211-17.896 3.635-26.33.43-12.873-4.621-22.08-17.562-22.329-31.226.017-22.197-.005-44.393.011-66.588 22.915-.006 45.83-.017 68.746.005.002 12.508.005 25.016-.003 37.524-.104 3.278 1.752 6.695 4.843 7.975 2.969 1.107 6.2.26 9.012-.905 37.137-16.806 74.27-33.623 111.414-50.418Zm0 0"></path><path fill="none" stroke="#fff" stroke-miterlimit="10" stroke-width=".1" d="M375.95 113.462c10.845-3.383 21.707-6.718 32.54-10.147 5.848 16.885 11.155 33.953 16.86 50.888 5.417-16.989 11.066-33.908 16.662-50.841 10.844 3.276 21.626 6.76 32.447 10.117-4.92 15.957-9.861 31.908-14.76 47.872 10.72-7.806 21.36-15.721 32.105-23.49 7.02 9.216 13.883 18.55 20.86 27.8a7767.518 7767.518 0 0 1-35.977 29.055c12.348.073 24.697.016 37.046.03.028 99.502.024 199.005.002 298.508-59.076-.008-118.151.001-177.226-.005-.018-99.5-.018-198.999 0-298.498 12.387.032 24.775-.077 37.162.058-12.25-9.941-24.603-19.758-36.942-29.587 6.922-9.306 13.932-18.545 20.83-27.867 11.06 7.93 21.993 16.04 33.073 23.942-4.842-15.96-9.883-31.861-14.682-47.835Zm0 0"></path><path fill="#fff" d="M375.95 113.462c10.845-3.383 21.707-6.718 32.54-10.147 5.848 16.885 11.155 33.953 16.86 50.888 5.417-16.989 11.066-33.908 16.662-50.841 10.844 3.276 21.626 6.76 32.447 10.117-4.92 15.957-9.861 31.908-14.76 47.872 10.72-7.806 21.36-15.721 32.105-23.49 7.02 9.216 13.883 18.55 20.86 27.8a7767.518 7767.518 0 0 1-35.977 29.055c12.348.073 24.697.016 37.046.03.028 99.502.024 199.005.002 298.508-59.076-.008-118.151.001-177.226-.005-.018-99.5-.018-198.999 0-298.498 12.387.032 24.775-.077 37.162.058-12.25-9.941-24.603-19.758-36.942-29.587 6.922-9.306 13.932-18.545 20.83-27.867 11.06 7.93 21.993 16.04 33.073 23.942-4.842-15.96-9.883-31.861-14.682-47.835Zm0 0"></path><path fill="none" stroke="#fff" stroke-miterlimit="10" stroke-width=".1" d="M133.807 240.67c34.885-15.574 69.797-31.09 104.656-46.722.14 11.522-.439 23.03-.2 34.557 19.329-.01 38.657-.017 57.986.004.025 68.009-.042 136.018.034 204.026-6.064.922-11.489 5.445-12.622 11.61-2.207 8.501 4.27 17.831 13.084 18.552.01 10.097-.002 20.195.006 30.294-48.607.016-97.214.01-145.82.003-14.206.111-28.007-7.253-36.267-18.722-6.106-8.083-9.423-18.135-9.668-28.237.007-55.693.005-111.387.001-167.08.171-8.089 2.134-16.423 7.117-22.948 5.357-7.311 13.484-11.902 21.693-15.338Zm0 0"></path><path fill="#fff" d="M133.807 240.67c34.885-15.574 69.797-31.09 104.656-46.722.14 11.522-.439 23.03-.2 34.557 19.329-.01 38.657-.017 57.986.004.025 68.009-.042 136.018.034 204.026-6.064.922-11.489 5.445-12.622 11.61-2.207 8.501 4.27 17.831 13.084 18.552.01 10.097-.002 20.195.006 30.294-48.607.016-97.214.01-145.82.003-14.206.111-28.007-7.253-36.267-18.722-6.106-8.083-9.423-18.135-9.668-28.237.007-55.693.005-111.387.001-167.08.171-8.089 2.134-16.423 7.117-22.948 5.357-7.311 13.484-11.902 21.693-15.338Zm0 0"></path><path fill="none" stroke="#000" stroke-miterlimit="10" stroke-width=".1" d="M369.752 230.006c12.58-.01 25.162-.008 37.744-.002.002 15.83.003 31.661 0 47.492-12.582 0-25.163.008-37.743-.004-.008-15.829-.006-31.658-.001-47.486Zm0 0"></path><path d="M369.752 230.006c12.58-.01 25.162-.008 37.744-.002.002 15.83.003 31.661 0 47.492-12.582 0-25.163.008-37.743-.004-.008-15.829-.006-31.658-.001-47.486Zm0 0"></path><path fill="none" stroke="#000" stroke-miterlimit="10" stroke-width=".1" d="M443.003 230.002c12.497-.003 24.994-.006 37.493.002.003 15.83.003 31.661 0 47.492-12.498.003-24.995.003-37.492 0-.008-15.832-.005-31.663-.001-47.494Zm0 0"></path><path d="M443.003 230.002c12.497-.003 24.994-.006 37.493.002.003 15.83.003 31.661 0 47.492-12.498.003-24.995.003-37.492 0-.008-15.832-.005-31.663-.001-47.494Zm0 0"></path><path fill="none" stroke="#000" stroke-miterlimit="10" stroke-width=".1" d="M238.004 261.504c8.582-.003 17.163-.006 25.746.001 0 47.83-.003 95.658 0 143.487-29.956-.026-59.914.09-89.869-.058 21.373-9.554 42.724-19.155 64.117-28.662.007-38.257-.004-76.512.006-114.768Zm0 0"></path><path d="M238.004 261.504c8.582-.003 17.163-.006 25.746.001 0 47.83-.003 95.658 0 143.487-29.956-.026-59.914.09-89.869-.058 21.373-9.554 42.724-19.155 64.117-28.662.007-38.257-.004-76.512.006-114.768Zm0 0"></path><path fill="none" stroke="#000" stroke-miterlimit="10" stroke-width=".1" d="M369.747 312.264c12.585-.023 25.172-.021 37.759 0-.02 48.577 0 97.154-.01 145.731-12.582.006-25.164.008-37.745 0-.007-48.578.002-97.154-.004-145.731Zm0 0"></path><path d="M369.747 312.264c12.585-.023 25.172-.021 37.759 0-.02 48.577 0 97.154-.01 145.731-12.582.006-25.164.008-37.745 0-.007-48.578.002-97.154-.004-145.731Zm0 0"></path><path fill="none" stroke="#000" stroke-miterlimit="10" stroke-width=".1" d="M443.009 312.249c12.494.004 24.99 0 37.486.002.005 48.581.003 97.163.001 145.745-12.499.007-24.996.003-37.493.002 0-48.583-.012-97.166.006-145.75Zm0 0"></path><path d="M443.009 312.249c12.494.004 24.99 0 37.486.002.005 48.581.003 97.163.001 145.745-12.499.007-24.996.003-37.493.002 0-48.583-.012-97.166.006-145.75Zm0 0"></path><path fill="none" stroke="#000" stroke-miterlimit="10" stroke-width=".1" d="M141.592 439.545c2.093-1.54 4.652-2.578 7.279-2.547 34.393-.006 68.787.022 103.18-.014-7.292 5.36-6.645 17.626.86 22.523-34.626-.018-69.251-.01-103.876-.004-3.968.03-8.073-2.052-9.969-5.62-2.473-4.6-1.654-10.992 2.526-14.338Zm0 0"></path><path d="M141.592 439.545c2.093-1.54 4.652-2.578 7.279-2.547 34.393-.006 68.787.022 103.18-.014-7.292 5.36-6.645 17.626.86 22.523-34.626-.018-69.251-.01-103.876-.004-3.968.03-8.073-2.052-9.969-5.62-2.473-4.6-1.654-10.992 2.526-14.338Zm0 0"></path></g></svg>